<?xml version="1.0" standalone="no"?>
<!DOCTYPE svg PUBLIC "-//W3C//DTD SVG 20010904//EN"
 "http://www.w3.org/TR/2001/REC-SVG-20010904/DTD/svg10.dtd">
<svg version="1.0" xmlns="http://www.w3.org/2000/svg"
 width="707.000000pt" height="292.000000pt" viewBox="0 0 707.000000 292.000000"
 preserveAspectRatio="xMidYMid meet">

<g transform="translate(0.000000,292.000000) scale(0.100000,-0.100000)"
fill="#000000" stroke="none">
<path d="M0 1460 l0 -1460 3535 0 3535 0 0 1460 0 1460 -3535 0 -3535 0 0
-1460z m1711 478 c19 -6 92 -45 164 -86 71 -42 153 -88 180 -103 57 -32 50
-40 -8 -9 -21 11 -42 18 -47 15 -6 -4 -10 1 -10 9 0 15 -106 76 -132 76 -22 0
-128 -92 -128 -111 0 -17 94 -79 119 -79 7 0 40 21 74 48 69 53 73 54 105 34
l23 -15 -22 -23 c-13 -13 -28 -24 -36 -24 -7 0 -13 -5 -13 -10 0 -6 -13 -18
-29 -28 -35 -21 -28 -35 42 -75 26 -15 47 -30 47 -33 0 -3 -15 3 -32 14 -69
41 -159 92 -163 92 -3 0 -43 23 -90 51 -48 28 -90 48 -93 44 -4 -4 0 -10 9
-15 18 -11 277 -195 301 -215 9 -7 27 -19 39 -26 13 -7 41 -25 63 -40 l39 -29
-39 4 -39 4 6 -98 c4 -70 11 -107 24 -126 12 -19 16 -38 12 -65 -3 -22 -1 -39
4 -39 10 0 12 -44 3 -77 -4 -13 -12 -23 -20 -23 -7 0 -16 -5 -20 -12 -5 -8 0
-9 14 -6 31 8 27 3 -15 -23 -42 -26 -52 -31 -138 -78 -33 -19 -85 -48 -115
-67 -80 -47 -109 -56 -158 -49 -50 7 -108 53 -128 102 -9 21 -14 74 -14 148
l0 116 -62 -3 -63 -3 -3 -52 c-3 -57 -11 -62 -87 -59 l-40 1 -3 68 -3 67 56 0
55 0 0 65 0 65 -100 0 -100 0 0 -45 0 -45 -50 0 -50 0 0 49 0 50 48 3 47 3 3
87 3 87 -53 3 -53 3 0 60 0 60 60 0 60 0 3 -47 3 -48 80 0 79 0 0 50 0 49 88
3 87 3 5 125 c6 132 11 148 58 193 45 43 96 55 153 35z m459 -254 c0 -2 -9 0
-20 6 -11 6 -20 13 -20 16 0 2 9 0 20 -6 11 -6 20 -13 20 -16z m2569 -117 c-7
-12 -47 -81 -90 -154 l-79 -131 0 -91 0 -91 -75 0 -75 0 0 91 0 91 -87 147
c-49 80 -90 150 -91 154 -2 4 31 7 73 5 l77 -3 53 -93 53 -93 19 28 c11 15 37
58 58 95 l39 67 60 3 c75 4 79 2 65 -25z m-1562 0 c94 -51 123 -188 56 -267
-40 -49 -79 -64 -178 -70 l-90 -5 -3 -62 -3 -63 -69 0 -70 0 0 246 0 246 163
-4 c130 -2 168 -7 194 -21z m303 -167 l0 -189 118 -3 117 -3 5 -45 5 -44 47
111 c26 62 73 169 104 238 l57 125 71 0 71 0 100 -227 c55 -124 103 -234 107
-245 7 -16 1 -18 -66 -18 l-74 0 -18 45 -17 45 -106 0 -107 0 -15 -42 -16 -43
-261 -3 -262 -2 0 245 0 245 70 0 70 0 0 -190z m1507 58 c43 -72 83 -133 89
-135 5 -1 45 58 89 132 l79 135 58 0 58 0 0 -245 0 -245 -65 0 -64 0 -3 122
-3 121 -60 -99 c-50 -83 -65 -100 -87 -102 -25 -3 -34 6 -90 94 l-63 98 -3
-117 -3 -117 -64 0 -65 0 0 245 0 245 59 0 58 0 80 -132z m759 122 l103 0 -2
-42 -3 -43 -187 -3 -187 -2 0 44 c0 41 2 45 28 49 15 3 54 3 86 1 32 -2 105
-4 162 -4z m-3656 -70 c4 0 10 -6 13 -14 5 -11 1 -11 -24 1 -30 15 -40 30 -13
19 9 -3 19 -6 24 -6z m66 -51 c19 -22 19 -22 -3 -8 -13 8 -23 17 -23 21 0 12
6 9 26 -13z m3499 -70 c79 0 149 2 154 6 7 4 11 -8 11 -32 0 -38 -11 -65 -25
-65 -4 0 -12 6 -16 14 -7 10 -9 10 -9 1 0 -10 -37 -13 -150 -13 l-150 0 0 49
c0 45 2 49 21 46 11 -2 85 -5 164 -6z m190 -210 c-4 -12 -3 -19 2 -16 5 3 8
-7 5 -22 l-4 -29 -156 -5 c-225 -8 -216 -10 -220 46 l-3 47 191 0 c191 0 191
0 185 -21z m-3660 -127 c-3 -3 -11 0 -18 7 -9 10 -8 11 6 5 10 -3 15 -9 12
-12z m-65 -72 c-8 -5 -19 -10 -25 -10 -5 0 -3 5 5 10 8 5 20 10 25 10 6 0 3
-5 -5 -10z"/>
<path d="M1590 1908 c-18 -13 -39 -33 -47 -45 -13 -19 -12 -23 6 -40 11 -10
35 -26 54 -37 l35 -18 71 56 c39 32 69 61 66 65 -2 5 -20 16 -39 25 -49 23
-107 20 -146 -6z"/>
<path d="M1950 1689 c0 -5 5 -7 10 -4 6 3 10 8 10 11 0 2 -4 4 -10 4 -5 0 -10
-5 -10 -11z"/>
<path d="M1632 1543 l-53 -4 3 -62 3 -62 47 -3 c42 -3 47 -6 50 -30 3 -24 8
-27 46 -30 l42 -3 0 45 c0 41 -2 45 -27 48 -26 3 -28 7 -33 52 -6 55 -4 54
-78 49z"/>
<path d="M2029 1430 c13 -11 31 -20 40 -20 10 0 6 7 -14 20 -39 26 -57 25 -26
0z"/>
<path d="M1353 1423 c-9 -3 -13 -29 -13 -79 l0 -74 75 0 75 0 0 80 0 80 -62
-1 c-35 0 -69 -3 -75 -6z"/>
<path d="M1540 1190 l0 -70 70 0 70 0 0 70 0 70 -70 0 -70 0 0 -70z"/>
<path d="M2960 1410 l0 -70 59 0 c73 0 104 21 104 70 0 49 -31 70 -104 70
l-59 0 0 -70z"/>
<path d="M3969 1372 l-26 -67 55 -3 c30 -2 56 -1 58 1 5 5 -47 137 -54 137 -4
0 -19 -31 -33 -68z"/>
<path d="M5773 1533 c9 -2 23 -2 30 0 6 3 -1 5 -18 5 -16 0 -22 -2 -12 -5z"/>
<path d="M5761 1344 c0 -11 3 -14 6 -6 3 7 2 16 -1 19 -3 4 -6 -2 -5 -13z"/>
<path d="M5768 1143 c6 -2 18 -2 25 0 6 3 1 5 -13 5 -14 0 -19 -2 -12 -5z"/>
<path d="M5778 1123 c12 -2 32 -2 45 0 12 2 2 4 -23 4 -25 0 -35 -2 -22 -4z"/>
</g>
</svg>
